HIERARCHY
ROOT Hips
{
	OFFSET 0.00000 0.00000 0.00000
	CHANNELS 6 Xposition Yposition Zposition Zrotation Yrotation Xrotation 
	JOINT LHipJoint
	{
		OFFSET 0 0 0
		CHANNELS 3 Zrotation Yrotation Xrotation
		JOINT LeftUpLeg
		{
			OFFSET 1.28366 -1.58472 0.87544
			CHANNELS 3 Zrotation Yrotation Xrotation
			JOINT LeftLeg
			{
				OFFSET 2.18587 -6.00562 0.00000
				CHANNELS 3 Zrotation Yrotation Xrotation
				JOINT LeftFoot
				{
					OFFSET 2.39085 -6.56880 0.00000
					CHANNELS 3 Zrotation Yrotation Xrotation
					JOINT LeftToeBase
					{
						OFFSET 0.12003 -0.32979 2.03101
						CHANNELS 3 Zrotation Yrotation Xrotation
						End Site
						{
							OFFSET 0.00000 -0.00000 1.04074
						}
					}
				}
			}
		}
	}
	JOINT RHipJoint
	{
		OFFSET 0 0 0
		CHANNELS 3 Zrotation Yrotation Xrotation
		JOINT RightUpLeg
		{
			OFFSET -1.21795 -1.58472 0.87544
			CHANNELS 3 Zrotation Yrotation Xrotation
			JOINT RightLeg
			{
				OFFSET -2.22714 -6.11902 0.00000
				CHANNELS 3 Zrotation Yrotation Xrotation
				JOINT RightFoot
				{
					OFFSET -2.40306 -6.60235 0.00000
					CHANNELS 3 Zrotation Yrotation Xrotation
					JOINT RightToeBase
					{
						OFFSET -0.15519 -0.42640 1.91430
						CHANNELS 3 Zrotation Yrotation Xrotation
						End Site
						{
							OFFSET -0.00000 -0.00000 0.99082
						}
					}
				}
			}
		}
	}
	JOINT LowerBack
	{
		OFFSET 0 0 0
		CHANNELS 3 Zrotation Yrotation Xrotation
		JOINT Spine
		{
			OFFSET 0.01180 1.76430 -0.06387
			CHANNELS 3 Zrotation Yrotation Xrotation
			JOINT Spine1
			{
				OFFSET -0.00388 1.74651 0.09536
				CHANNELS 3 Zrotation Yrotation Xrotation
				JOINT Neck
				{
					OFFSET 0 0 0
					CHANNELS 3 Zrotation Yrotation Xrotation
					JOINT Neck1
					{
						OFFSET 0.04111 1.46174 0.14397
						CHANNELS 3 Zrotation Yrotation Xrotation
						JOINT Head
						{
							OFFSET 0.00502 1.44580 -0.31711
							CHANNELS 3 Zrotation Yrotation Xrotation
							End Site
							{
								OFFSET -0.00395 1.49251 -0.12327
							}
						}
					}
				}
				JOINT LeftShoulder
				{
					OFFSET 0 0 0
					CHANNELS 3 Zrotation Yrotation Xrotation
					JOINT LeftArm
					{
						OFFSET 2.70917 1.34870 -0.15417
						CHANNELS 3 Zrotation Yrotation Xrotation
						JOINT LeftForeArm
						{
							OFFSET 4.46610 -0.00000 -0.00000
							CHANNELS 3 Zrotation Yrotation Xrotation
							JOINT LeftHand
							{
								OFFSET 3.41414 -0.00000 0.00000
								CHANNELS 3 Zrotation Yrotation Xrotation
								JOINT LeftFingerBase
								{
									OFFSET 0 0 0
									CHANNELS 3 Zrotation Yrotation Xrotation
									JOINT LeftHandIndex1
									{
										OFFSET 0.32830 -0.00000 0.00000
										CHANNELS 3 Zrotation Yrotation Xrotation
										End Site
										{
											OFFSET 0.26468 -0.00000 0.00000
										}
									}
								}
								JOINT LThumb
								{
									OFFSET 0 0 0
									CHANNELS 3 Zrotation Yrotation Xrotation
									End Site
									{
										OFFSET 0.26872 -0.00000 0.26872
									}
								}
							}
						}
					}
				}
				JOINT RightShoulder
				{
					OFFSET 0 0 0
					CHANNELS 3 Zrotation Yrotation Xrotation
					JOINT RightArm
					{
						OFFSET -3.06316 1.13725 -0.10883
						CHANNELS 3 Zrotation Yrotation Xrotation
						JOINT RightForeArm
						{
							OFFSET -4.40431 -0.00000 0.00000
							CHANNELS 3 Zrotation Yrotation Xrotation
							JOINT RightHand
							{
								OFFSET -3.04688 -0.00000 0.00000
								CHANNELS 3 Zrotation Yrotation Xrotation
								JOINT RightFingerBase
								{
									OFFSET 0 0 0
									CHANNELS 3 Zrotation Yrotation Xrotation
									JOINT RightHandIndex1
									{
										OFFSET -0.50049 -0.00000 0.00000
										CHANNELS 3 Zrotation Yrotation Xrotation
										End Site
										{
											OFFSET -0.40351 -0.00000 0.00000
										}
									}
								}
								JOINT RThumb
								{
									OFFSET 0 0 0
									CHANNELS 3 Zrotation Yrotation Xrotation
									End Site
									{
										OFFSET -0.40967 -0.00000 0.40967
									}
								}
							}
						}
					}
				}
			}
		}
	}
}
MOTION
Frames: 9
Frame Time: 0.0253165
0.00 0.00 0.00 -181.8580 7.7398 -173.4140 0.0000 0.0000 0.0000 -24.8892 17.6282 -36.4079 7.6680 15.8696 51.3579 1.9672 5.7579 -29.0648 0.2471 3.1985 8.8320 0.0000 0.0000 0.0000 4.8720 -9.4445 -54.3408 -5.6807 -14.1116 43.6864 -0.6746 -10.6071 -22.7691 -0.5677 -4.8257 13.4122 0.4581 5.2719 7.3230 -6.3897 8.0413 -12.1276 -9.4691 3.6784 -16.7982 -3.8751 7.8568 -15.5096 20.8434 7.4437 13.9365 8.0892 4.8717 5.8043 -0.0000 0.0000 0.0000 52.5149 -29.7124 -62.3085 16.0321 -25.5641 -3.6598 -0.0000 -0.0000 47.1564 -49.9057 22.5966 -24.5316 -7.1250 0.0000 -0.0000 -60.1353 41.6846 9.0185 -0.0000 0.0000 0.0000 47.5230 -1.4984 80.1105 -99.5802 59.6503 -68.2869 0.0000 -0.0000 -79.6167 33.0761 -1.2034 -0.7837 7.1250 -0.0000 -0.0000 41.5226 -27.2676 24.7487
0.00 0.00 0.00 -182.3830 6.6204 -173.4650 0.0000 0.0000 0.0000 -24.8187 17.5210 -33.0935 6.5520 14.9427 47.1587 1.7169 6.0030 -27.5265 0.1711 2.6644 7.3458 0.0000 0.0000 0.0000 3.1540 -5.2523 -43.2546 -1.8421 -8.5291 24.3329 -0.2079 -20.1378 -29.9551 -0.6578 -5.1873 14.4436 -1.2308 4.3071 5.3764 -6.5986 6.6176 -12.0566 -8.2088 3.3449 -15.8015 -5.1786 6.7723 -15.8881 21.5796 5.7698 15.7552 8.6054 4.0908 6.5901 -0.0000 -0.0000 0.0000 54.4345 -31.2859 -62.6860 17.0494 -26.9228 -4.1097 -0.0000 -0.0000 47.4322 -46.1743 23.3394 -22.4288 -7.1250 0.0000 -0.0000 -60.4058 43.2415 4.6061 -0.0000 -0.0000 0.0000 48.7262 -1.0311 80.9172 -98.6770 59.7136 -67.5072 0.0000 -0.0000 -79.3636 33.2933 -1.2425 -0.8158 7.1250 -0.0000 -0.0000 41.6252 -27.2467 24.8982
0.00 0.00 0.00 -182.8530 5.9339 -173.8450 0.0000 0.0000 0.0000 -24.3381 17.4080 -30.7543 6.0313 14.4587 45.1074 1.5187 5.6586 -25.9186 0.0925 1.9611 5.3981 0.0000 0.0000 0.0000 -1.5712 5.9484 -32.6323 -0.9562 -6.2267 17.4437 -1.3865 -28.1873 -45.3825 -2.4426 -9.7329 28.1159 -2.8744 3.7620 4.5818 -6.8148 5.7668 -11.9857 -7.2946 3.1884 -15.4389 -6.1729 5.8763 -15.7451 22.2394 4.4110 16.6708 8.9805 3.4090 7.0054 0.0000 -0.0000 0.0000 56.0729 -32.2781 -62.3393 17.7159 -27.7919 -4.4160 -0.0000 -0.0000 46.6659 -44.3445 23.5986 -21.3689 -7.1250 0.0000 -0.0000 -60.1863 43.8407 2.9543 0.0000 -0.0000 0.0000 49.5001 -1.2791 81.4614 -98.9059 59.6982 -67.7049 0.0000 -0.0000 -79.6484 33.8827 -1.1168 -0.7499 7.1250 -0.0000 -0.0000 41.8045 -26.9771 25.5225
0.00 0.00 0.00 -181.7570 5.3066 -173.8160 0.0000 0.0000 0.0000 -22.0603 16.2088 -30.9811 6.5973 14.9832 47.3344 1.2492 5.4106 -23.7000 0.0183 0.8733 2.4001 0.0000 0.0000 0.0000 -4.4924 19.4405 -25.0565 -0.6590 -5.1922 14.4576 -7.8700 -28.7820 -64.9235 -4.6970 -13.0342 39.4968 -1.9608 3.3265 4.1777 -6.6910 5.2889 -11.9583 -7.5153 2.8742 -15.1106 -7.2535 4.7929 -15.9760 22.3557 2.8489 18.0354 9.2172 2.6143 7.7050 -0.0000 0.0000 0.0000 56.8877 -32.7197 -60.8166 18.8549 -29.2380 -4.9598 -0.0000 -0.0000 45.8807 -43.8441 23.2485 -20.7621 -7.1250 0.0000 -0.0000 -59.6736 43.6697 3.3319 -0.0000 0.0000 0.0000 49.3251 -0.8453 82.1292 -99.0959 59.6851 -67.8690 0.0000 -0.0000 -79.7814 34.1651 -1.0692 -0.7256 7.1250 -0.0000 -0.0000 41.8924 -26.8563 25.8154
0.00 0.00 0.00 -178.3720 0.7154 -173.1610 0.0000 0.0000 0.0000 -8.7602 16.0400 -47.6141 14.0841 19.1394 72.4613 0.4601 -4.8648 -12.0761 0.0002 -0.0804 -0.2209 0.0000 0.0000 0.0000 19.5240 -12.8981 -39.4631 -9.9561 -17.3851 59.3415 -2.3991 -0.5102 -29.5214 -0.0766 -1.7851 4.9121 0.8470 0.7361 6.8937 5.9508 2.8552 -8.7177 5.4986 2.1017 -13.7773 2.6302 1.0658 -16.3504 -13.6372 2.9542 22.6452 -5.0168 -0.5286 10.2121 -0.0000 0.0000 0.0000 42.2786 -34.7197 -38.6961 27.4978 -38.6498 -9.8084 -0.0000 -0.0000 32.3478 -4.7705 19.1742 -1.5701 -7.1250 0.0000 -0.0000 -30.8556 46.5890 -1.3357 -0.0000 0.0000 0.0000 35.8155 2.8316 74.9725 -106.9975 58.8797 -74.6649 0.0000 -0.0000 -81.7430 33.0571 -2.2968 -1.4941 7.1250 -0.0000 -0.0000 41.9634 -28.2514 23.7329
0.00 0.00 0.00 -177.2730 -2.9222 -171.9380 0.0000 0.0000 0.0000 -6.9794 12.2174 -51.6704 3.6870 11.7318 34.7895 0.9237 14.3256 -28.3662 0.0000 -0.0308 -0.0846 0.0000 0.0000 0.0000 23.3144 -14.1824 -34.4700 -6.8387 -15.1945 48.2616 -1.5657 -4.9202 -25.8481 -0.2551 -3.2500 8.9755 0.6432 2.0730 5.8068 10.6257 2.2462 -8.5574 11.4871 1.0117 -13.2236 3.4508 0.6620 -17.2865 -19.0379 2.8824 20.8647 -7.1532 -1.2179 9.9066 -0.0000 -0.0000 0.0000 43.0176 -34.8370 -35.4103 32.8148 -43.1872 -13.2951 -0.0000 -0.0000 31.0337 38.0044 -3.0330 -2.3676 -7.1250 0.0000 -0.0000 8.6289 26.1166 -3.9921 -0.0000 -0.0000 0.0000 33.6591 2.8047 69.8800 -108.6968 58.6371 -76.1178 0.0000 -0.0000 -80.8550 33.5708 -3.1001 -2.0555 7.1250 -0.0000 -0.0000 42.5116 -28.8398 23.4033
0.00 0.00 0.00 -177.8310 -0.9688 -171.5130 0.0000 0.0000 0.0000 -8.2244 7.8286 -39.6132 0.8762 5.9677 16.6906 1.1936 20.5038 -36.3187 0.2881 3.4516 9.5386 0.0000 0.0000 0.0000 21.1452 -13.8479 -33.3763 -6.4460 -14.8470 46.7464 -1.3023 -4.5726 -23.6420 -0.1224 -2.2552 6.2113 1.3099 2.6438 4.7705 10.9281 2.8924 -8.4056 11.3054 1.1857 -12.5067 3.9274 0.7525 -17.2837 -19.2209 2.9198 20.6336 -7.2872 -1.1618 9.8362 -0.0000 0.0000 0.0000 43.6015 -35.3781 -35.8474 33.7050 -43.8649 -13.9082 -0.0000 -0.0000 33.2782 49.6819 -9.3231 -10.8079 -7.1250 0.0000 -0.0000 15.5996 16.0676 -11.0965 -0.0000 0.0000 0.0000 31.3375 3.3779 69.1101 -109.5537 58.5048 -76.8490 0.0000 -0.0000 -81.3230 34.4772 -2.8860 -1.9801 7.1250 -0.0000 -0.0000 42.7691 -28.4082 24.3802
0.00 0.00 0.00 -173.9890 -7.7553 -171.8680 0.0000 0.0000 0.0000 -9.4697 11.2124 -49.5583 2.8747 10.4894 30.5767 1.6231 13.0359 -31.8204 0.0492 -1.4311 -3.9359 0.0000 0.0000 0.0000 32.2016 -18.5529 -38.3295 -6.6913 -15.0663 47.6969 -1.5575 0.6730 -23.4049 -0.0043 0.4229 -1.1621 -0.1780 0.1704 6.5678 10.1591 -0.0896 -4.7851 11.3574 -0.0930 -8.8668 6.7709 3.6373 -19.2159 -15.8059 6.2338 26.9691 -6.4884 0.7523 13.0300 0.0000 -0.0000 0.0000 -68.6544 -13.4405 16.6660 13.0984 -21.4312 -2.4891 -0.0000 0.0000 -14.7748 46.2762 16.1291 16.1965 -7.1250 0.0000 -0.0000 19.2224 51.6581 3.2523 0.0000 -0.0000 0.0000 37.2082 4.9994 62.6290 -101.6722 59.4789 -70.0908 0.0000 -0.0000 -80.8813 30.6333 -2.5739 -1.5233 7.1250 -0.0000 -0.0000 41.0265 -29.0497 21.5772
0.00 0.00 0.00 -177.1050 -5.5783 -171.1810 0.0000 0.0000 0.0000 -12.5598 9.2181 -44.6378 1.9316 8.7220 24.9296 1.2859 16.6121 -32.9432 0.1035 -2.0750 -5.7131 0.0000 0.0000 0.0000 25.3017 -16.9810 -40.1373 -7.3109 -15.5882 50.0405 -1.1222 3.9585 -19.0970 -0.0828 1.8560 -5.1079 -2.4835 -0.2768 6.5493 9.5707 -0.8152 -4.6961 12.1406 -0.2672 -8.6084 4.7193 1.4121 -20.0731 -12.1159 2.8081 26.0354 -5.0781 -0.3537 12.1947 -0.0000 0.0000 0.0000 -67.3932 -7.1522 49.8930 27.2090 -38.3778 -9.6286 -0.0000 0.0000 -41.7182 42.6583 23.8747 20.4523 -7.1250 0.0000 -0.0000 16.2581 60.2828 6.1566 -0.0000 0.0000 0.0000 39.5581 8.0022 61.5422 -100.6755 59.5650 -69.2318 0.0000 -0.0000 -81.2765 29.2922 -2.4351 -1.3654 7.1250 -0.0000 -0.0000 40.3356 -29.1941 20.7254
